<?xml version="1.0" encoding="UTF-8" standalone="no"?>
<!-- Generator: Adobe Illustrator 26.0.0, SVG Export Plug-In . SVG Version: 6.00 Build 0)  -->

<svg
   version="1.1"
   id="Layer_1"
   x="0px"
   y="0px"
   viewBox="0 0 32 31.999999"
   xml:space="preserve"
   sodipodi:docname="gitlab-tanuki-scalability.svg"
   width="32"
   height="32"
   inkscape:version="1.2.2 (b0a8486541, 2022-12-01)"
   xmlns:inkscape="http://www.inkscape.org/namespaces/inkscape"
   xmlns:sodipodi="http://sodipodi.sourceforge.net/DTD/sodipodi-0.dtd"
   xmlns="http://www.w3.org/2000/svg"
   xmlns:svg="http://www.w3.org/2000/svg"><defs
   id="defs121">



</defs><sodipodi:namedview
   id="namedview119"
   pagecolor="#ffffff"
   bordercolor="#666666"
   borderopacity="1.0"
   inkscape:showpageshadow="2"
   inkscape:pageopacity="0.0"
   inkscape:pagecheckerboard="0"
   inkscape:deskcolor="#d1d1d1"
   showgrid="false"
   inkscape:zoom="4"
   inkscape:cx="9.625"
   inkscape:cy="12.625"
   inkscape:window-width="1342"
   inkscape:window-height="768"
   inkscape:window-x="24"
   inkscape:window-y="0"
   inkscape:window-maximized="1"
   inkscape:current-layer="Layer_1" />
<style
   type="text/css"
   id="style2">
	.st0{fill:#171321;}
	.st1{fill:#E24329;}
	.st2{fill:#FC6D26;}
	.st3{fill:#FCA326;}
	.st4{fill:#A2A1A6;}
</style>





<g
   id="g32"
   transform="translate(-299.50112,-93.95)">
		<path
   class="st1"
   d="m 331,106.8 v -0.2 l -4.5,-11.4 c -0.1,-0.2 -0.2,-0.4 -0.4,-0.5 -0.2,-0.1 -0.4,-0.2 -0.7,-0.2 -0.2,0 -0.5,0.1 -0.7,0.2 -0.2,0.2 -0.3,0.4 -0.4,0.6 l -3,9 h -11.8 l -3,-9 c -0.1,-0.2 -0.2,-0.4 -0.4,-0.6 -0.2,-0.1 -0.4,-0.2 -0.7,-0.2 -0.2,0 -0.5,0 -0.7,0.2 -0.2,0.1 -0.4,0.3 -0.4,0.5 l -4.3,11.3 v 0.1 c -1.3,3.4 -0.2,7.2 2.7,9.3 l 6.6,5 3.3,2.5 2,1.5 c 0.5,0.4 1.1,0.4 1.6,0 l 2,-1.5 3.3,-2.5 6.7,-5 c 2.8,-2 4,-5.8 2.8,-9.1 z"
   id="path24" />
		<path
   class="st2"
   d="m 331,106.8 v -0.2 c -2.1,0.4 -4.1,1.3 -5.8,2.6 l -9.6,7.2 6.1,4.6 6.7,-5 c 2.8,-2.1 3.9,-5.9 2.6,-9.2 z"
   id="path26" />
		<path
   class="st3"
   d="m 309.4,121.1 3.3,2.5 2,1.5 c 0.5,0.4 1.1,0.4 1.6,0 l 2,-1.5 3.3,-2.5 -6.1,-4.6 z"
   id="path28" />
		<path
   class="st2"
   d="m 305.9,109.3 c -1.7,-1.3 -3.7,-2.2 -5.9,-2.7 v 0.1 c -1.3,3.4 -0.2,7.2 2.7,9.3 l 6.6,5 6.1,-4.6 z"
   id="path30" />
	</g>



</svg>
