<?xml version="1.0" encoding="UTF-8" standalone="no"?>
<svg
   xmlns:dc="http://purl.org/dc/elements/1.1/"
   xmlns:cc="http://creativecommons.org/ns#"
   xmlns:rdf="http://www.w3.org/1999/02/22-rdf-syntax-ns#"
   xmlns:svg="http://www.w3.org/2000/svg"
   xmlns="http://www.w3.org/2000/svg"
   xmlns:sodipodi="http://sodipodi.sourceforge.net/DTD/sodipodi-0.dtd"
   xmlns:inkscape="http://www.inkscape.org/namespaces/inkscape"
   width="64"
   height="64"
   viewBox="0 0 16.933333 16.933334"
   version="1.1"
   id="svg8"
   inkscape:version="1.0.2 (e86c870879, 2021-01-15)"
   sodipodi:docname="icon-clear.svg">
  <defs
     id="defs2" />
  <sodipodi:namedview
     id="base"
     pagecolor="#ffffff"
     bordercolor="#666666"
     borderopacity="1.0"
     inkscape:pageopacity="0.0"
     inkscape:pageshadow="2"
     inkscape:zoom="8"
     inkscape:cx="-6.2062197"
     inkscape:cy="23.731577"
     inkscape:document-units="mm"
     inkscape:current-layer="layer1"
     inkscape:document-rotation="0"
     showgrid="false"
     units="px"
     inkscape:window-width="1920"
     inkscape:window-height="1010"
     inkscape:window-x="0"
     inkscape:window-y="0"
     inkscape:window-maximized="1" />
  <metadata
     id="metadata5">
    <rdf:RDF>
      <cc:Work
         rdf:about="">
        <dc:format>image/svg+xml</dc:format>
        <dc:type
           rdf:resource="http://purl.org/dc/dcmitype/StillImage" />
        <dc:title></dc:title>
      </cc:Work>
    </rdf:RDF>
  </metadata>
  <g
     inkscape:label="Calque 1"
     inkscape:groupmode="layer"
     id="layer1">
    <path
       id="rect833"
       style="fill:#000000;stroke-width:0.27564"
       d="m 3.78945,2.8540066 a 0.6614583,0.6614583 0 0 0 -0.9354433,-10e-8 0.6614583,0.6614583 0 0 0 0,0.9354434 L 13.143883,14.079326 a 0.6614583,0.6614583 0 0 0 0.935444,10e-7 0.6614583,0.6614583 0 0 0 0,-0.935444 z" />
    <path
       id="path841"
       style="fill:#000000;stroke-width:0.27564"
       d="m 14.079327,3.7894496 a 0.6614583,0.6614583 0 0 0 0,-0.9354433 0.6614583,0.6614583 0 0 0 -0.935443,0 L 2.854008,13.143882 a 0.6614583,0.6614583 0 0 0 -1.4e-6,0.935445 0.6614583,0.6614583 0 0 0 0.9354442,0 z" />
  </g>
</svg>
