<?xml version="1.0" encoding="UTF-8" standalone="no"?>
<svg
   xmlns:dc="http://purl.org/dc/elements/1.1/"
   xmlns:cc="http://creativecommons.org/ns#"
   xmlns:rdf="http://www.w3.org/1999/02/22-rdf-syntax-ns#"
   xmlns:svg="http://www.w3.org/2000/svg"
   xmlns="http://www.w3.org/2000/svg"
   xmlns:sodipodi="http://sodipodi.sourceforge.net/DTD/sodipodi-0.dtd"
   xmlns:inkscape="http://www.inkscape.org/namespaces/inkscape"
   width="64"
   height="64"
   viewBox="0 0 16.933333 16.933334"
   version="1.1"
   id="svg8"
   inkscape:version="1.0.2 (e86c870879, 2021-01-15)"
   sodipodi:docname="icon-user.svg">
  <defs
     id="defs2" />
  <sodipodi:namedview
     id="base"
     pagecolor="#ffffff"
     bordercolor="#666666"
     borderopacity="1.0"
     inkscape:pageopacity="0.0"
     inkscape:pageshadow="2"
     inkscape:zoom="9.46"
     inkscape:cx="2.3243247"
     inkscape:cy="26.932426"
     inkscape:document-units="mm"
     inkscape:current-layer="layer1"
     inkscape:document-rotation="0"
     showgrid="false"
     units="px"
     inkscape:window-width="1920"
     inkscape:window-height="1010"
     inkscape:window-x="0"
     inkscape:window-y="0"
     inkscape:window-maximized="1" />
  <metadata
     id="metadata5">
    <rdf:RDF>
      <cc:Work
         rdf:about="">
        <dc:format>image/svg+xml</dc:format>
        <dc:type
           rdf:resource="http://purl.org/dc/dcmitype/StillImage" />
        <dc:title></dc:title>
      </cc:Work>
    </rdf:RDF>
  </metadata>
  <g
     inkscape:label="Calque 1"
     inkscape:groupmode="layer"
     id="layer1">
    <g
       id="g916"
       transform="matrix(0.98788097,0,0,0.98788097,0.10259824,-0.27819575)">
      <path
         id="path833-6"
         style="fill:#000000;fill-opacity:1;stroke-width:0.383177"
         d="m 15.368105,17.422675 a 6.9048367,11.066413 0 0 0 0.0034,-0.345826 A 6.9048367,11.066413 0 0 0 8.4666851,6.0104354 6.9048367,11.066413 0 0 0 1.5618477,17.076849 a 6.9048367,11.066413 0 0 0 0.00335,0.345826 z" />
      <circle
         style="fill:#000000;fill-opacity:1;stroke:none;stroke-width:0.370222;stroke-opacity:1"
         id="path838-3"
         cx="8.4666662"
         cy="3.9838448"
         r="3.7022362" />
      <path
         id="path833"
         style="fill:#e7f0ff;fill-opacity:1;stroke-width:0.350317"
         d="m 14.776252,16.933333 a 6.3126964,10.117387 0 0 0 0.0031,-0.316169 6.3126964,10.117387 0 0 0 -6.3126737,-10.1173869 6.3126964,10.117387 0 0 0 -6.312697,10.1173869 6.3126964,10.117387 0 0 0 0.00306,0.316169 z" />
      <circle
         style="fill:#e7f0ff;fill-opacity:1;stroke:none;stroke-width:0.320496;stroke-opacity:1"
         id="path838"
         cx="8.4666662"
         cy="3.9838448"
         r="3.2049692" />
    </g>
  </g>
</svg>
