<?xml version="1.0" encoding="UTF-8" standalone="no"?>
<svg
   xmlns:dc="http://purl.org/dc/elements/1.1/"
   xmlns:cc="http://creativecommons.org/ns#"
   xmlns:rdf="http://www.w3.org/1999/02/22-rdf-syntax-ns#"
   xmlns:svg="http://www.w3.org/2000/svg"
   xmlns="http://www.w3.org/2000/svg"
   xmlns:xlink="http://www.w3.org/1999/xlink"
   xmlns:sodipodi="http://sodipodi.sourceforge.net/DTD/sodipodi-0.dtd"
   xmlns:inkscape="http://www.inkscape.org/namespaces/inkscape"
   width="64"
   height="64"
   viewBox="0 0 16.933333 16.933334"
   version="1.1"
   id="svg8"
   inkscape:version="1.0.2 (e86c870879, 2021-01-15)"
   sodipodi:docname="osse.svg">
  <defs
     id="defs2">
    <linearGradient
       inkscape:collect="always"
       id="linearGradient1970">
      <stop
         style="stop-color:#ffffff;stop-opacity:1;"
         offset="0"
         id="stop1966" />
      <stop
         style="stop-color:#ffffff;stop-opacity:0;"
         offset="1"
         id="stop1968" />
    </linearGradient>
    <linearGradient
       inkscape:collect="always"
       id="linearGradient1291">
      <stop
         style="stop-color:#ffffd8;stop-opacity:0"
         offset="0"
         id="stop1287" />
      <stop
         style="stop-color:#ffffd8;stop-opacity:0"
         offset="0.57034892"
         id="stop1851" />
      <stop
         style="stop-color:#ffffd8;stop-opacity:1"
         offset="1"
         id="stop1289" />
    </linearGradient>
    <radialGradient
       inkscape:collect="always"
       xlink:href="#linearGradient1291"
       id="radialGradient1293"
       cx="-7.7873731"
       cy="-91.654549"
       fx="-7.7873731"
       fy="-91.654549"
       r="5.1689452"
       gradientTransform="matrix(1.568997,0,0,1.3274075,4.930512,30.184188)"
       gradientUnits="userSpaceOnUse" />
    <filter
       inkscape:collect="always"
       style="color-interpolation-filters:sRGB"
       id="filter1847"
       x="-5.1615855e-05"
       width="1.0001032"
       y="-6.100999e-05"
       height="1.000122">
      <feGaussianBlur
         inkscape:collect="always"
         stdDeviation="0.00022233294"
         id="feGaussianBlur1849" />
    </filter>
    <radialGradient
       inkscape:collect="always"
       xlink:href="#linearGradient1291"
       id="radialGradient1293-9"
       cx="-7.7873731"
       cy="-91.654549"
       fx="-7.7873731"
       fy="-91.654549"
       r="5.1689453"
       gradientTransform="matrix(1.568997,0,0,1.3274075,4.930512,30.184188)"
       gradientUnits="userSpaceOnUse" />
    <filter
       inkscape:collect="always"
       style="color-interpolation-filters:sRGB"
       id="filter1847-4"
       x="-5.1615854e-05"
       width="1.0001032"
       y="-6.1009989e-05"
       height="1.000122">
      <feGaussianBlur
         inkscape:collect="always"
         stdDeviation="0.00022233294"
         id="feGaussianBlur1849-7" />
    </filter>
    <radialGradient
       inkscape:collect="always"
       xlink:href="#linearGradient1291"
       id="radialGradient1293-9-4"
       cx="-7.7873731"
       cy="-91.654549"
       fx="-7.7873731"
       fy="-91.654549"
       r="5.1689453"
       gradientTransform="matrix(1.568997,0,0,1.3274075,4.930512,30.184188)"
       gradientUnits="userSpaceOnUse" />
    <filter
       inkscape:collect="always"
       style="color-interpolation-filters:sRGB"
       id="filter1847-4-6"
       x="-5.1615854e-05"
       width="1.0001032"
       y="-6.1009989e-05"
       height="1.000122">
      <feGaussianBlur
         inkscape:collect="always"
         stdDeviation="0.00022233294"
         id="feGaussianBlur1849-7-1" />
    </filter>
    <radialGradient
       inkscape:collect="always"
       xlink:href="#linearGradient1291"
       id="radialGradient1293-6"
       cx="-7.7873731"
       cy="-91.654549"
       fx="-7.7873731"
       fy="-91.654549"
       r="5.1689453"
       gradientTransform="matrix(1.568997,0,0,1.3274075,4.930512,30.184188)"
       gradientUnits="userSpaceOnUse" />
    <filter
       inkscape:collect="always"
       style="color-interpolation-filters:sRGB"
       id="filter1847-6"
       x="-5.1615854e-05"
       width="1.0001032"
       y="-6.1009989e-05"
       height="1.000122">
      <feGaussianBlur
         inkscape:collect="always"
         stdDeviation="0.00022233294"
         id="feGaussianBlur1849-1" />
    </filter>
    <radialGradient
       inkscape:collect="always"
       xlink:href="#linearGradient1970"
       id="radialGradient1972"
       cx="-9.02005"
       cy="-25.793152"
       fx="-9.02005"
       fy="-25.793152"
       r="0.41101405"
       gradientTransform="matrix(1,0,0,1.1335966,0.98291097,3.8934397)"
       gradientUnits="userSpaceOnUse" />
    <radialGradient
       inkscape:collect="always"
       xlink:href="#linearGradient1970"
       id="radialGradient1972-5"
       cx="-9.02005"
       cy="-25.793152"
       fx="-9.02005"
       fy="-25.793152"
       r="0.41101405"
       gradientTransform="matrix(1,0,0,1.1335966,8.1155533,3.990279)"
       gradientUnits="userSpaceOnUse" />
  </defs>
  <sodipodi:namedview
     id="base"
     pagecolor="#e7f0ff"
     bordercolor="#666666"
     borderopacity="1.0"
     inkscape:pageopacity="1"
     inkscape:pageshadow="2"
     inkscape:zoom="4"
     inkscape:cx="19.212031"
     inkscape:cy="30.933572"
     inkscape:document-units="mm"
     inkscape:current-layer="layer1"
     inkscape:document-rotation="0"
     showgrid="false"
     units="px"
     inkscape:window-width="1920"
     inkscape:window-height="1010"
     inkscape:window-x="0"
     inkscape:window-y="0"
     inkscape:window-maximized="1" />
  <metadata
     id="metadata5">
    <rdf:RDF>
      <cc:Work
         rdf:about="">
        <dc:format>image/svg+xml</dc:format>
        <dc:type
           rdf:resource="http://purl.org/dc/dcmitype/StillImage" />
        <dc:title />
      </cc:Work>
    </rdf:RDF>
  </metadata>
  <g
     inkscape:label="Calque 1"
     inkscape:groupmode="layer"
     id="layer1">
    <g
       id="g1013"
       transform="translate(-17.954291,-2.2071977)" />
    <g
       id="g2011"
       transform="matrix(1.6137799,0,0,1.5959446,16.807863,51.65016)">
      <path
         id="path1109"
         style="fill:#83c1c1;fill-opacity:1;stroke:none;stroke-width:0.999999;stroke-opacity:1"
         d="m -32.486328,-101.81641 a 5.1690425,5.1690425 0 0 0 -5.080078,5.169926 5.1690425,5.1690425 0 0 0 1.439453,3.578125 5.1690425,5.1690425 0 0 0 -1.439453,3.578125 5.1690425,5.1690425 0 0 0 5.169922,5.167968 5.1690425,5.1690425 0 0 0 5.167968,-5.167968 5.1690425,5.1690425 0 0 0 -0.25,-1.589844 h 16.414063 a 5.1690425,5.1690425 0 0 0 -0.251953,1.589844 5.1690425,5.1690425 0 0 0 5.1699216,5.167968 5.1690425,5.1690425 0 0 0 5.16796878,-5.167968 5.1690425,5.1690425 0 0 0 -1.43945318,-3.578125 5.1690425,5.1690425 0 0 0 1.43945318,-3.578125 5.1690425,5.1690425 0 0 0 -5.16796878,-5.169926 5.1690425,5.1690425 0 0 0 -5.1699216,5.169926 5.1690425,5.1690425 0 0 0 0.25,1.58789 h -16.414063 a 5.1690425,5.1690425 0 0 0 0.251953,-1.58789 5.1690425,5.1690425 0 0 0 -5.167968,-5.169926 5.1690425,5.1690425 0 0 0 -0.08984,0 z"
         transform="scale(0.26458333)" />
      <path
         id="path1109-2"
         style="fill:#ffffff;fill-opacity:0;stroke:#000000;stroke-width:0.264583;stroke-opacity:1"
         d="m -1.3067131,-24.212175 c 1.09233916,-0.233316 1.0477551,-1.005985 1.04781416,-1.358873 1.2897e-4,-0.755308 -0.61205004,-1.367719 -1.36735836,-1.367876 -0.7555101,-1.29e-4 -1.3680041,0.612366 -1.3678751,1.367876 5.5e-6,0.142635 0.022324,0.284392 0.066146,0.420129 h -4.3428827 c 0.043996,-0.135709 0.066488,-0.277466 0.06666,-0.420129 1.29e-4,-0.755308 -0.6120498,-1.367719 -1.367358,-1.367876 -0.00792,-6.9e-5 -0.015846,-6.9e-5 -0.023769,0 -0.7462108,0.01284 -1.344342,0.621555 -1.344104,1.367876 5.9e-5,0.352888 -0.014472,0.826191 0.8268878,1.357949 m -0.4460372,-0.411237 c -0.2443357,0.254617 -0.3807916,0.593824 -0.3808506,0.946712 1.566e-4,0.755308 0.6125668,1.367487 1.367875,1.367359 0.7551063,-1.57e-4 1.3672015,-0.612253 1.367358,-1.367359 4.71e-5,-0.142809 -0.022273,-0.284744 -0.06615,-0.420646 h 4.3428877 c -0.044051,0.135874 -0.066544,0.27781 -0.066663,0.420646 1.566e-4,0.755308 0.6125669,1.367487 1.3678751,1.367359 0.75510643,-1.57e-4 1.36720185,-0.612253 1.36735836,-1.367359 -5.906e-5,-0.352888 -0.1365195,-0.692095 -0.3808553,-0.946712"
         sodipodi:nodetypes="ccccccccccccccccccccc" />
      <path
         id="path1285"
         style="fill:url(#radialGradient1293);fill-opacity:1;stroke:none;stroke-width:0.999999;stroke-opacity:1;filter:url(#filter1847)"
         d="m -11.064453,-91.080078 c -0.166491,0.51354 -0.251505,1.049991 -0.251953,1.589844 5.93e-4,2.854707 2.3152145,5.168454 5.1699216,5.167968 2.8539445,-5.93e-4 5.16737559,-2.314024 5.16796878,-5.167968 -2.2301e-4,-1.33375 -0.51597908,-2.615792 -1.43945318,-3.578125 -3.8697643,2.871909 -5.3500606,3.579861 -8.6464842,1.988281 z"
         transform="matrix(0.2582306,0.05763067,-0.05763067,0.2582306,-5.2248512,-0.19511238)"
         sodipodi:nodetypes="cccccc" />
      <path
         id="path1285-8"
         style="fill:url(#radialGradient1293-9);fill-opacity:1;stroke:none;stroke-width:0.999999;stroke-opacity:1;filter:url(#filter1847-4)"
         d="m -11.064453,-91.080078 c -0.166491,0.51354 -0.251505,1.049991 -0.251953,1.589844 5.93e-4,2.854707 2.3152145,5.168454 5.1699216,5.167968 2.8539445,-5.93e-4 5.16737559,-2.314024 5.16796878,-5.167968 -2.2301e-4,-1.33375 -0.51597908,-2.615792 -1.43945318,-3.578125 -3.8697643,2.871909 -5.3500606,3.579861 -8.6464842,1.988281 z"
         transform="matrix(0.18283837,0.19124453,-0.19124453,0.18283837,-24.608189,-6.0873911)"
         sodipodi:nodetypes="cccccc" />
      <path
         id="path1285-8-0"
         style="fill:url(#radialGradient1293-9-4);fill-opacity:1;stroke:none;stroke-width:0.999999;stroke-opacity:1;filter:url(#filter1847-4-6)"
         d="m -11.064453,-91.080078 c -0.166491,0.51354 -0.251505,1.049991 -0.251953,1.589844 5.93e-4,2.854707 2.3152145,5.168454 5.1699216,5.167968 2.8539445,-5.93e-4 5.16737559,-2.314024 5.16796878,-5.167968 -2.2301e-4,-1.33375 -0.51597908,-2.615792 -1.43945318,-3.578125 -3.8697643,2.871909 -5.3500606,3.579861 -8.6464842,1.988281 z"
         transform="matrix(-0.17937722,0.1944946,-0.1944946,-0.17937722,-27.072751,-40.40173)"
         sodipodi:nodetypes="cccccc" />
      <path
         id="path1285-5"
         style="fill:url(#radialGradient1293-6);fill-opacity:1;stroke:none;stroke-width:0.999999;stroke-opacity:1;filter:url(#filter1847-6)"
         d="m -11.064453,-91.080078 c -0.166491,0.51354 -0.251505,1.049991 -0.251953,1.589844 5.93e-4,2.854707 2.3152145,5.168454 5.1699216,5.167968 2.8539445,-5.93e-4 5.16737559,-2.314024 5.16796878,-5.167968 -2.2301e-4,-1.33375 -0.51597908,-2.615792 -1.43945318,-3.578125 -3.8697643,2.871909 -5.3500606,3.579861 -8.6464842,1.988281 z"
         transform="matrix(-0.23843179,0.11469358,-0.11469358,-0.23843179,-13.333346,-46.209818)"
         sodipodi:nodetypes="cccccc" />
      <ellipse
         style="opacity:0.373215;fill:url(#radialGradient1972);fill-opacity:1;stroke:none;stroke-width:0.264583;stroke-opacity:1"
         id="path1964"
         cx="-8.0371389"
         cy="-25.345589"
         rx="0.41101405"
         ry="0.46592411" />
      <ellipse
         style="opacity:0.373215;fill:url(#radialGradient1972-5);fill-opacity:1;stroke:none;stroke-width:0.264583;stroke-opacity:1"
         id="path1964-6"
         cx="-0.90449655"
         cy="-25.248751"
         rx="0.41101405"
         ry="0.46592411" />
    </g>
    <rect
       style="opacity:1;fill:#000000;stroke-width:0.132797"
       id="rect864"
       width="4"
       height="10"
       x="0.44339472"
       y="0.47024408" />
    <rect
       style="opacity:1;fill:#ffffff;stroke-width:0.109104"
       id="rect870"
       width="3"
       height="9"
       x="0.94339472"
       y="0.97024405" />
    <rect
       style="opacity:1;fill:#000000;stroke-width:0.132797"
       id="rect872"
       width="4"
       height="10"
       x="4.4433947"
       y="0.47024408" />
    <rect
       style="opacity:1;fill:#ffffff;stroke-width:0.109104"
       id="rect874"
       width="3"
       height="9"
       x="4.9433947"
       y="0.97024405" />
    <rect
       style="opacity:1;fill:#000000;stroke-width:0.334722"
       id="rect876"
       width="2.2"
       height="1"
       x="5.8000002"
       y="3.6815274" />
    <rect
       style="fill:#000000;stroke-width:0.334722"
       id="rect876-3"
       width="2.2"
       height="1"
       x="4.9000001"
       y="7.062283" />
    <rect
       style="fill:#000000;stroke-width:0.417698"
       id="rect876-6"
       width="3.8693643"
       height="0.88540137"
       x="-7.4049263"
       y="2.000694"
       transform="rotate(-90)" />
    <rect
       style="fill:#000000;stroke-width:0.132797"
       id="rect872-7"
       width="4"
       height="10"
       x="8.4433947"
       y="0.47024408" />
    <rect
       style="fill:#ffffff;stroke-width:0.109104"
       id="rect874-5"
       width="3"
       height="9"
       x="8.9433947"
       y="0.97024405" />
    <rect
       style="fill:#000000;stroke-width:0.334722"
       id="rect876-35"
       width="2.2"
       height="1"
       x="10"
       y="3.6815279" />
    <rect
       style="fill:#000000;stroke-width:0.132797"
       id="rect872-7-2"
       width="4"
       height="10"
       x="12.443395"
       y="0.47024408" />
    <rect
       style="fill:#ffffff;stroke-width:0.109104"
       id="rect874-5-9"
       width="3"
       height="9"
       x="12.943395"
       y="0.97024411" />
    <rect
       style="fill:#000000;stroke-width:0.334722"
       id="rect876-35-1"
       width="2.2"
       height="1"
       x="13.780417"
       y="3.6815279" />
    <rect
       style="fill:#000000;stroke-width:0.334722"
       id="rect876-3-6-2"
       width="2.2"
       height="1"
       x="13.780417"
       y="7.062283" />
    <rect
       style="fill:#000000;stroke-width:0.334722"
       id="rect876-3-7"
       width="2.2"
       height="1"
       x="8.8999996"
       y="7.062283" />
  </g>
</svg>
